<?xml version="1.0" standalone="no"?>
<!DOCTYPE svg PUBLIC "-//W3C//DTD SVG 20010904//EN"
 "http://www.w3.org/TR/2001/REC-SVG-20010904/DTD/svg10.dtd">
<svg version="1.0" xmlns="http://www.w3.org/2000/svg"
 width="512.000000pt" height="512.000000pt" viewBox="0 0 512.000000 512.000000"
 preserveAspectRatio="xMidYMid meet">

<g transform="translate(9.000000,512.000000) scale(0.100000,-0.100000)"
fill="#000000" stroke="none">
<path d="M1273 3679 c-698 -699 -1269 -1278 -1271 -1287 -3 -19 336 -362 358
-362 8 0 96 82 197 182 l183 182 0 -40 c0 -22 5 -45 12 -52 9 -9 244 -12 995
-12 l983 0 0 -85 0 -85 -170 0 -170 0 0 60 c0 48 -4 61 -19 70 -13 6 -198 10
-531 10 -333 0 -518 -4 -531 -10 -15 -9 -19 -22 -19 -70 l0 -60 -249 0 c-138
0 -261 -4 -275 -10 l-26 -10 0 -249 c0 -237 1 -251 19 -261 12 -6 118 -10 275
-10 l256 0 0 -85 0 -85 -256 0 c-157 0 -263 -4 -275 -10 -18 -10 -19 -24 -19
-260 0 -184 3 -251 12 -256 7 -4 454 -7 995 -6 l983 1 0 -90 0 -89 -984 0
c-822 0 -985 -2 -995 -14 -8 -9 -11 -87 -9 -262 l3 -249 1815 0 1815 0 3 249
c2 175 -1 253 -9 262 -9 11 -64 14 -275 14 l-264 0 0 90 0 90 273 2 272 3 3
250 c2 226 1 251 -15 262 -12 10 -84 13 -275 13 l-258 0 0 85 0 85 256 0 c157
0 263 4 275 10 18 10 19 24 19 261 l0 249 -26 10 c-14 6 -137 10 -275 10
l-249 0 0 85 0 85 263 0 c191 0 266 3 275 12 7 7 12 30 12 52 l0 40 183 -182
c101 -100 189 -182 197 -182 22 0 361 343 358 362 -5 27 -2536 2558 -2558
2558 -13 0 -467 -449 -1287 -1271z m2522 -57 l1229 -1233 -131 -131 -132 -132
-1053 1057 -1054 1057 -89 0 -90 0 -1057 -1057 -1058 -1058 -132 132 -132 132
1229 1235 c677 678 1232 1233 1235 1232 3 0 558 -556 1235 -1234z m-995 353
l185 -185 -425 0 -425 0 185 185 185 185 55 0 55 0 185 -185z m355 -355 l90
-90 -685 0 -685 0 90 90 90 90 505 0 505 0 90 -90z m355 -355 l185 -185 -1135
0 -1135 0 185 185 185 185 765 0 765 0 185 -185z m355 -355 l90 -90 -1395 0
-1395 0 90 90 90 90 1215 0 1215 0 90 -90z m303 -303 l132 -132 0 -53 0 -52
-1740 0 -1740 0 0 52 0 53 132 132 133 133 1475 0 1475 0 133 -133z m-418
-1337 l0 -1020 -470 0 -470 0 0 1020 0 1020 470 0 470 0 0 -1020z m-1950 650
l0 -260 -215 0 -215 0 0 260 0 260 215 0 215 0 0 -260z m510 0 l0 -260 -215 0
-215 0 0 260 0 260 215 0 215 0 0 -260z m-1020 -70 l0 -190 -235 0 -235 0 0
190 0 190 235 0 235 0 0 -190z m1440 0 l0 -190 -170 0 -170 0 0 190 0 190 170
0 170 0 0 -190z m1570 0 l0 -190 -235 0 -235 0 0 190 0 190 235 0 235 0 0
-190z m-2500 -585 l0 -315 -215 0 -215 0 0 315 0 315 215 0 215 0 0 -315z
m510 0 l0 -315 -215 0 -215 0 0 315 0 315 215 0 215 0 0 -315z m420 230 l0
-85 -170 0 -170 0 0 85 0 85 170 0 170 0 0 -85z m-1440 -355 l0 -190 -235 0
-235 0 0 190 0 190 235 0 235 0 0 -190z m1440 0 l0 -190 -170 0 -170 0 0 190
0 190 170 0 170 0 0 -190z m1570 0 l0 -190 -235 0 -235 0 0 190 0 190 235 0
235 0 0 -190z m-1570 -705 l0 -185 -955 0 -955 0 0 185 0 185 955 0 955 0 0
-185z m1570 0 l0 -185 -235 0 -235 0 0 185 0 185 235 0 235 0 0 -185z"/>
<path d="M2950 2171 c-16 -30 -14 -702 3 -724 11 -16 42 -17 326 -17 220 0
318 3 327 11 19 16 21 718 2 737 -9 9 -96 12 -330 12 -303 0 -318 -1 -328 -19z"/>
</g>
</svg>
